<?xml version="1.0" encoding="UTF-8" standalone="no"?>
<!-- Created with Inkscape (http://www.inkscape.org/) -->

<svg
   version="1.1"
   id="svg1"
   width="801.77557"
   height="610.50238"
   viewBox="0 0 801.77557 610.50238"
   sodipodi:docname="logo_1.svg"
   inkscape:version="1.4 (86a8ad7, 2024-10-11)"
   xmlns:inkscape="http://www.inkscape.org/namespaces/inkscape"
   xmlns:sodipodi="http://sodipodi.sourceforge.net/DTD/sodipodi-0.dtd"
   xmlns="http://www.w3.org/2000/svg"
   xmlns:svg="http://www.w3.org/2000/svg"
   xmlns:rdf="http://www.w3.org/1999/02/22-rdf-syntax-ns#"
   xmlns:cc="http://creativecommons.org/ns#"
   xmlns:dc="http://purl.org/dc/elements/1.1/">
  <title
     id="title1">TROWEL logo</title>
  <defs
     id="defs1">
    <rect
       x="116.73854"
       y="761.33832"
       width="810.82526"
       height="238.55266"
       id="rect1" />
  </defs>
  <sodipodi:namedview
     id="namedview1"
     pagecolor="#ffffff"
     bordercolor="#000000"
     borderopacity="0.25"
     inkscape:showpageshadow="2"
     inkscape:pageopacity="0.0"
     inkscape:pagecheckerboard="0"
     inkscape:deskcolor="#d1d1d1"
     showgrid="false"
     inkscape:zoom="0.78808594"
     inkscape:cx="395.26146"
     inkscape:cy="248.06939"
     inkscape:window-width="1920"
     inkscape:window-height="1009"
     inkscape:window-x="1912"
     inkscape:window-y="-8"
     inkscape:window-maximized="1"
     inkscape:current-layer="g1" />
  <g
     inkscape:groupmode="layer"
     inkscape:label="Image"
     id="g1"
     transform="translate(-115.22618,-264.00613)">
    <path
       style="fill:#000000"
       d="m 170.5,763.94848 c -57.69928,-0.88939 -56.02884,-0.83516 -54.95,-1.78405 0.5225,-0.45956 8.375,-2.76948 17.45,-5.13316 45.72545,-11.90969 78.26089,-25.70218 110.97848,-47.04622 18.30174,-11.93955 32.19017,-19.03653 41.02152,-20.962 15.62669,-3.40704 19.13624,-4.63255 29,-10.12665 16.15911,-9.00059 22.00398,-11.08783 32.5,-11.60597 7.79524,-0.38481 9.9931,-0.0996 16.41882,2.13049 4.08035,1.41613 7.52409,2.46324 7.65275,2.32693 1.38848,-1.47108 0.20542,-6.4523 -2.95141,-12.42681 -4.83324,-9.14724 -17.35659,-22.16324 -28.12016,-29.22636 -8.03828,-5.27477 -7.38842,-5.75407 2.12693,-1.5687 7.87412,3.46347 16.16409,9.11384 23.25831,15.85267 3.5443,3.36674 6.12805,5.25271 5.74167,4.19105 -0.38639,-1.06167 -1.60001,-6.01167 -2.69694,-11 -3.41246,-15.51824 -7.83118,-27.33197 -17.49778,-46.78143 -7.29558,-14.67892 -8.27359,-16.21818 -17.09374,-26.90332 -18.83128,-22.8131 -46.73767,-36.6698 -93.33845,-46.34649 -15.60156,-3.23968 -16.14607,-3.42923 -10,-3.48114 8.44467,-0.0713 30.87509,2.55376 42.97639,5.02962 34.26977,7.01142 58.27474,21.51929 73.87105,44.64541 15.20455,22.54522 29.50692,63.01254 31.82678,90.05107 0.88597,10.32629 2.32578,9.99154 2.32578,-0.54074 0,-11.57879 1.47292,-19.27964 5.18151,-27.0904 5.79335,-12.20153 20.1304,-23.12825 34.9216,-26.61484 7.68462,-1.81142 24.41825,-1.89962 34.89689,-0.18393 l 7.5,1.22799 -4,1.34667 c -23.42717,7.88718 -44.60387,31.21605 -50.84125,56.00822 -0.89062,3.54001 -1.48231,6.57338 -1.31486,6.74083 0.16745,0.16745 5.44607,-2.34907 11.73028,-5.59227 6.28421,-3.2432 15.25083,-7.10808 19.92583,-8.58862 7.58471,-2.40204 9.95027,-2.6809 21.96825,-2.58975 7.40753,0.0562 14.94503,-0.17489 16.75,-0.5135 L 481,646.77742 V 596.02278 545.26813 L 469.88892,522.38407 C 463.77783,509.79783 454.37636,490.275 448.99678,479 443.61719,467.725 435.74273,451.3 431.49799,442.5 400.84787,378.95763 397,369.04996 397,353.67315 c 0,-15.08486 6.29197,-34.82229 15.53111,-48.71994 12.99502,-19.54731 35.50832,-34.65736 58.67673,-39.38153 11.09803,-2.26296 27.45497,-2.05014 37.85177,0.49249 11.82277,2.89136 28.73046,11.44945 37.93021,19.19895 22.64811,19.07789 35.63533,50.41706 32.05265,77.34555 -1.58843,11.93906 -5.53631,21.90468 -25.50861,64.39133 -16.69793,35.52113 -49.30466,101.85515 -55.98541,113.89481 L 494,547.28961 v 46.47183 c 0,43.7978 0.1007,46.44077 1.75,45.93217 0.9625,-0.29681 5.93374,-2.13443 11.04719,-4.08359 21.59811,-8.23282 45.25987,-12.23141 67.10343,-11.33976 29.35505,1.19826 56.32576,9.7602 82.49774,26.18919 12.10288,7.59736 12.55263,7.56311 12.59711,-0.95945 0.0402,-7.694 3.83263,-61.28746 5.44882,-77 3.09712,-30.11016 3.10065,-29.16488 -0.11521,-30.84415 -3.85622,-2.01365 -7.65556,-6.26836 -10.40839,-11.65585 -4.85935,-9.51016 -2.82579,-20.38099 9.82095,-52.5 8.18485,-20.78712 10.16687,-24.99149 11.26417,-23.89419 1.40287,1.40287 11.58532,29.18681 14.97464,40.85993 4.00349,13.78841 5.14071,21.6224 4.00679,27.60155 -1.94946,10.27944 -7.42623,17.0431 -16.18329,19.98591 -4.67086,1.56964 -5.38942,2.18013 -6.02003,5.11459 -0.94492,4.39708 -6.18517,91.7643 -5.54253,92.40694 0.27355,0.27354 1.25953,-2.55637 2.19107,-6.28869 6.77555,-27.14702 26.61537,-43.20522 49.19618,-39.81902 l 4.83929,0.7257 -3.11954,2.65364 c -1.71575,1.4595 -5.93625,4.22864 -9.37889,6.15364 -11.64861,6.51347 -25.5791,21.34068 -31.99941,34.05924 C 684.98776,642.96721 678,662.24925 678,664.57073 c 0,3.13141 22.97668,17.14292 26.1284,15.93349 0.75747,-0.29067 2.95095,-2.84855 4.87441,-5.68419 4.50346,-6.63919 14.85641,-16.91049 22.49719,-22.31974 3.3,-2.33623 11.625,-7.49521 18.5,-11.4644 6.875,-3.9692 15.5375,-9.41906 19.25,-12.11081 3.7125,-2.69174 6.75,-4.6989 6.75,-4.46034 0,3.24998 -4.81926,23.70798 -7.14598,30.33505 -3.69137,10.51389 -10.73954,24.45302 -15.54993,30.75299 -1.94107,2.54215 -3.14107,4.95836 -2.66666,5.36937 0.47441,0.411 3.11257,1.55331 5.86257,2.53846 6.37346,2.2832 19.28599,9.16661 42,22.38935 20.83938,12.13144 35.35933,19.16641 53.83589,26.08367 14.57625,5.45707 42.05244,13.77841 56.57389,17.13378 7.31813,1.69095 9.02206,2.39123 7.66553,3.15038 -1.04079,0.58246 -28.63074,1.32311 -68.40978,1.83647 -76.0426,0.98134 -612.57129,0.89759 -677.66553,-0.10578 z M 725.1102,745.13913 C 713.8346,730.90253 695.80883,718.61727 677.5,712.69095 666.15966,709.02024 659.29727,708 645.94733,708 c -15.3598,0 -26.35926,1.99914 -43.71043,7.94434 l -14.26311,4.88711 -4.73689,-3.3656 c -41.64199,-29.58687 -69.21395,-42.71509 -101.09853,-48.13743 -12.04153,-2.0478 -43.18845,-2.31334 -54.63837,-0.46581 -26.92058,4.34383 -56.50365,15.79379 -78.88111,30.5305 l -8.14841,5.36615 -9.98524,-3.32168 c -22.89199,-7.61521 -42.18377,-6.65854 -61.50772,3.05014 -6.65856,3.34538 -17.60596,11.30598 -20.86976,15.17583 -1.31573,1.56005 -3.11573,3.70942 -4,4.77638 -0.88427,1.06696 1.09224,-0.10641 4.39224,-2.60748 12.99298,-9.8474 25.81692,-15.05585 41.42216,-16.82363 18.74109,-2.12302 36.28912,2.28014 52.35039,13.1358 4.35985,2.94677 6.19531,3.67513 7.5,2.97617 0.9501,-0.50899 7.12745,-4.3862 13.72745,-8.61604 21.32811,-13.66882 43.405,-23.11879 64.34143,-27.54121 12.67751,-2.67789 37.42906,-3.66965 50.74744,-2.0334 36.35711,4.46672 65.24096,17.19809 100.64787,44.36337 l 7.73674,5.93587 9.26326,-3.99929 C 614.19468,721.47697 630.21485,718 647.97948,718 c 28.13506,0 54.04666,9.44757 74.02052,26.98845 5.7318,5.03362 7.02726,5.09638 3.1102,0.15068 z M 592.43936,672.27722 C 572.64757,645.94974 539.64922,637.72579 511.21312,652.03379 504.80518,655.25803 492.46603,664 494.32301,664 c 0.29742,0 4.11163,-1.78185 8.47601,-3.95967 11.86539,-5.92081 20.72607,-8.07774 33.29987,-8.10611 12.31291,-0.0278 21.94673,1.74814 31.68995,5.84181 7.79947,3.27699 21.21138,12.16971 24.52521,16.26136 3.28435,4.05526 3.38926,2.58161 0.12531,-1.76017 z M 506,409.03719 c 26.86853,-9.14806 44.25871,-36.74249 40.04151,-63.53719 -3.10706,-19.74125 -18.56775,-38.70202 -37.66409,-46.19071 -6.06853,-2.37979 -8.28881,-2.7036 -18.87742,-2.75314 -14.70835,-0.0688 -20.73371,1.64279 -31.4915,8.94573 -8.79056,5.96748 -15.804,14.19228 -20.46367,23.99812 -4.23223,8.90634 -5.8092,15.80377 -5.80329,25.38272 0.01,15.42529 5.39026,28.18064 16.75846,39.72695 7.41955,7.53578 16.48562,12.75602 27.53104,15.85234 7.58163,2.12534 21.48306,1.46442 29.96896,-1.42482 z M 339.21137,581.57644 c -5.3459,-6.67112 -17.55392,-17.56357 -29.04919,-25.91877 -20.11508,-14.62042 -45.84642,-26.06294 -72.53019,-32.25361 -11.41197,-2.64759 -7.60184,-2.9264 5.07953,-0.3717 23.3388,4.70168 48.82829,15.09909 67.27653,27.44275 C 325.00946,560.52589 350.77509,588 345.17944,588 c -0.4513,0 -3.13694,-2.8906 -5.96807,-6.42356 z m 309.09568,0.3465 c -8.07895,-3.99904 -14.83611,-13.55191 -20.34405,-28.76122 -2.91266,-8.04286 -2.42784,-8.43992 9.537,-7.81063 15.25886,0.80254 26.49587,6.84 31.69364,17.02848 2.53688,4.97269 2.14384,13.46784 -0.77463,16.74295 -4.50221,5.05237 -13.1343,6.25432 -20.11196,2.80042 z m 48.96361,0.11324 c -8.04498,-3.652 -10.24367,-11.32139 -5.88737,-20.53618 4.74701,-10.04126 14.25846,-15.44558 28.62549,-16.26475 11.55263,-0.65871 17.99122,0.29491 17.99122,2.66468 0,0.97756 -2.2509,6.38023 -5.002,12.00594 -6.31274,12.90887 -13.07715,20.14925 -21.03163,22.51148 -6.86454,2.03855 -9.51686,1.96975 -14.69571,-0.38117 z"
       id="path1" />
    <text
       xml:space="preserve"
       id="text1"
       style="font-size:122.667px;text-align:start;letter-spacing:28.93px;writing-mode:lr-tb;direction:ltr;white-space:pre;shape-inside:url(#rect1);fill:#000000"
       x="205.3125"
       y="0"><tspan
         x="213.86609"
         y="873.25071"
         id="tspan3"><tspan
           style="font-family:'Franklin Gothic Heavy';-inkscape-font-specification:'Franklin Gothic Heavy, ';text-align:center;text-anchor:middle"
           id="tspan2">TROWEL</tspan></tspan></text>
  </g>
  <metadata
     id="metadata1">
    <rdf:RDF>
      <cc:Work
         rdf:about="">
        <dc:title>TROWEL logo</dc:title>
      </cc:Work>
    </rdf:RDF>
  </metadata>
</svg>
